<?xml version="1.0" standalone="no"?>
<!DOCTYPE svg PUBLIC "-//W3C//DTD SVG 20010904//EN"
 "http://www.w3.org/TR/2001/REC-SVG-20010904/DTD/svg10.dtd">
<svg version="1.0" xmlns="http://www.w3.org/2000/svg"
 width="2961.000000pt" height="988.000000pt" viewBox="0 0 2961.000000 988.000000"
 preserveAspectRatio="xMidYMid meet">

<g transform="translate(0.000000,988.000000) scale(0.100000,-0.100000)"
fill="#000000" stroke="none">
<path d="M4756 9000 c-139 -8 -389 -35 -428 -46 -22 -7 -23 -37 -2 -117 49
-191 172 -343 348 -433 75 -39 198 -74 258 -74 l38 0 -2 338 -3 337 -30 1
c-16 1 -97 -2 -179 -6z"/>
<path d="M3405 8694 c-207 -86 -435 -204 -435 -225 0 -39 74 -240 136 -368
329 -682 994 -1128 1758 -1177 l106 -7 0 310 0 310 -37 7 c-21 3 -54 6 -74 6
-20 0 -76 7 -125 15 -280 48 -549 185 -756 383 -206 198 -342 427 -408 685
-15 59 -29 109 -31 111 -2 2 -62 -21 -134 -50z"/>
<path d="M2184 7902 c-95 -87 -281 -285 -345 -365 l-21 -27 61 -115 c593
-1120 1697 -1825 2947 -1882 l141 -6 6 153 c4 84 7 226 7 315 l0 162 -152 6
c-775 33 -1527 409 -2045 1022 -167 198 -348 496 -453 749 l-38 88 -108 -100z"/>
<path d="M1245 6633 c-248 -550 -365 -1090 -365 -1688 0 -589 110 -1108 350
-1651 374 -847 1064 -1565 1908 -1984 523 -260 1095 -407 1660 -427 l172 -6 0
1925 0 1924 -207 12 c-323 18 -581 57 -873 133 -963 248 -1819 829 -2403 1632
-47 64 -105 148 -129 187 -24 38 -46 70 -49 70 -4 0 -33 -57 -64 -127z"/>
</g>
</svg>
