<svg id="svg" version="1.1" xmlns="http://www.w3.org/2000/svg" xmlns:xlink="http://www.w3.org/1999/xlink" width="80" height="50.46842283012495" viewBox="0, 0, 400,133.46842283012495"><g id="svgg"><path id="path0" d="M63.000 11.950 C 61.502 12.066,58.413 12.524,58.287 12.648 C 58.068 12.864,58.502 14.519,59.123 15.833 C 60.408 18.554,63.447 20.673,66.333 20.861 L 67.083 20.910 67.128 16.372 L 67.172 11.833 65.461 11.862 C 64.520 11.878,63.413 11.918,63.000 11.950 M46.081 15.975 C 43.904 16.881,40.308 18.704,40.214 18.951 C 40.088 19.280,40.786 21.399,41.677 23.390 C 44.276 29.195,48.954 34.046,54.789 36.987 C 57.833 38.522,61.906 39.609,65.795 39.924 L 67.172 40.035 67.128 35.809 L 67.083 31.583 65.750 31.471 C 57.195 30.753,49.376 23.970,48.024 16.096 C 47.878 15.245,47.843 15.242,46.081 15.975 M28.885 27.326 C 25.935 30.232,24.628 31.783,24.766 32.218 C 25.053 33.122,27.077 36.611,28.578 38.790 C 36.835 50.780,52.159 59.000,66.252 59.000 L 67.167 59.000 67.167 56.526 C 67.167 55.165,67.216 53.253,67.275 52.276 L 67.384 50.500 66.150 50.498 C 56.723 50.486,46.402 45.910,39.409 38.644 C 35.899 34.996,33.560 31.397,31.276 26.125 C 30.914 25.290,30.994 25.249,28.885 27.326 M17.448 42.558 C 17.303 42.780,16.837 43.776,16.411 44.772 C 4.167 73.428,17.528 105.658,46.583 117.555 C 51.772 119.680,58.559 121.124,64.813 121.433 L 67.167 121.550 67.167 95.525 L 67.167 69.500 66.542 69.499 C 47.980 69.454,29.494 59.586,19.087 44.167 C 18.376 43.112,17.775 42.229,17.753 42.203 C 17.730 42.177,17.593 42.337,17.448 42.558 " stroke="none" fill="#0474bc" fill-rule="evenodd"></path><path id="path1" d="M62.083 1.275 C 11.654 5.441,-15.676 61.364,12.308 103.128 C 33.953 135.433,79.051 141.826,108.833 116.813 C 141.718 89.194,139.667 38.241,104.667 13.279 C 92.521 4.616,76.455 0.087,62.083 1.275 M67.167 16.333 L 67.167 21.000 66.518 21.000 C 63.039 21.000,59.073 17.533,58.303 13.820 C 58.004 12.378,57.927 12.425,61.109 12.107 C 64.929 11.725,64.944 11.724,66.125 11.693 L 67.167 11.667 67.167 16.333 M80.583 13.588 C 108.915 20.879,126.529 49.453,120.391 78.167 C 116.647 95.682,104.254 110.508,87.655 117.331 C 84.533 118.615,78.853 120.328,77.708 120.332 L 77.333 120.333 77.375 85.458 L 77.417 50.583 90.958 50.541 L 104.500 50.498 104.500 45.250 L 104.500 40.002 90.958 39.959 L 77.417 39.917 77.374 26.583 C 77.350 19.250,77.367 13.154,77.412 13.038 C 77.504 12.796,77.500 12.795,80.583 13.588 M48.175 16.295 C 49.827 24.267,57.288 30.660,65.822 31.416 L 67.167 31.535 67.167 35.767 L 67.167 40.000 66.230 40.000 C 57.983 40.000,48.696 34.794,43.800 27.426 C 42.111 24.883,39.794 19.610,40.061 18.914 C 40.212 18.521,47.553 15.097,47.864 15.274 C 47.926 15.310,48.067 15.769,48.175 16.295 M31.561 26.544 C 36.878 39.965,49.709 49.115,64.993 50.386 L 67.373 50.583 67.349 54.000 C 67.335 55.879,67.279 57.773,67.224 58.208 L 67.124 59.000 65.770 58.998 C 49.800 58.977,33.838 49.097,25.646 34.164 L 24.459 32.000 25.259 31.042 C 26.270 29.830,30.747 25.333,30.939 25.335 C 31.019 25.337,31.298 25.880,31.561 26.544 M18.391 42.980 C 27.312 57.434,44.768 67.836,62.333 69.166 C 63.663 69.267,65.294 69.389,65.958 69.439 L 67.167 69.528 67.167 95.566 L 67.167 121.603 65.625 121.544 C 25.474 120.020,0.260 79.347,17.029 43.154 C 17.675 41.760,17.640 41.764,18.391 42.980 " stroke="none" fill="#fbfbfb" fill-rule="evenodd"></path><path id="path2" d="M77.412 13.038 C 77.367 13.154,77.350 19.250,77.374 26.583 L 77.417 39.917 90.958 39.959 L 104.500 40.002 104.500 45.250 L 104.500 50.498 90.958 50.541 L 77.417 50.583 77.375 85.458 L 77.333 120.333 77.708 120.332 C 78.853 120.328,84.533 118.615,87.655 117.331 C 104.254 110.508,116.647 95.682,120.391 78.167 C 126.529 49.453,108.915 20.879,80.583 13.588 C 77.500 12.795,77.504 12.796,77.412 13.038 " stroke="none" fill="#fcc404" fill-rule="evenodd"></path><path id="path3" d="M59.167 0.264 C 58.296 0.390,57.011 0.566,56.311 0.654 C 52.700 1.109,45.251 3.164,41.750 4.670 C 41.383 4.828,40.596 5.164,40.000 5.417 C 37.505 6.476,33.459 8.607,31.358 9.969 C 30.840 10.305,30.287 10.656,30.128 10.748 C 25.830 13.252,19.308 19.102,15.067 24.256 C 13.652 25.975,10.667 30.036,10.667 30.241 C 10.667 30.279,10.385 30.748,10.042 31.284 C 5.029 39.099,1.863 47.860,0.387 58.000 C -0.057 61.045,-0.056 72.087,0.387 75.250 C 1.156 80.735,2.214 84.893,4.328 90.750 C 5.222 93.224,8.392 99.710,9.101 100.513 C 9.229 100.658,9.333 100.828,9.333 100.891 C 9.333 101.072,11.862 104.911,12.022 104.972 C 12.102 105.003,12.167 105.094,12.167 105.176 C 12.167 105.373,13.929 107.708,15.556 109.667 C 17.190 111.633,21.991 116.420,23.667 117.754 C 24.354 118.301,24.977 118.843,25.050 118.958 C 25.123 119.073,25.292 119.167,25.425 119.167 C 25.558 119.167,25.667 119.231,25.667 119.309 C 25.667 119.388,26.135 119.777,26.708 120.175 C 27.281 120.573,27.787 120.942,27.833 120.994 C 27.904 121.073,29.537 122.158,32.000 123.760 C 32.636 124.173,33.986 124.934,35.167 125.543 C 37.202 126.594,38.148 127.067,38.833 127.378 C 39.246 127.566,39.713 127.782,39.872 127.859 C 40.681 128.251,43.617 129.357,45.583 130.010 C 46.408 130.285,47.458 130.634,47.917 130.787 C 48.375 130.939,49.050 131.119,49.417 131.185 C 49.783 131.252,50.533 131.421,51.083 131.563 C 60.494 133.977,73.500 133.948,82.621 131.491 C 83.284 131.313,83.951 131.167,84.104 131.167 C 84.257 131.167,84.803 131.027,85.316 130.857 C 85.830 130.687,86.775 130.380,87.417 130.175 C 88.964 129.680,90.760 129.029,91.583 128.666 C 91.950 128.504,92.737 128.168,93.333 127.921 C 94.554 127.413,98.776 125.331,99.667 124.798 C 99.987 124.606,100.405 124.365,100.595 124.264 C 106.025 121.357,114.861 113.741,118.667 108.687 C 118.896 108.383,119.201 108.010,119.344 107.859 C 119.695 107.488,121.167 105.517,121.167 105.417 C 121.167 105.373,121.504 104.893,121.917 104.351 C 122.329 103.808,122.667 103.325,122.667 103.277 C 122.667 103.229,122.948 102.752,123.292 102.216 C 124.541 100.268,125.795 98.022,126.902 95.750 C 128.007 93.481,128.090 93.291,129.302 90.250 C 133.968 78.542,134.833 62.531,131.476 50.000 C 130.688 47.062,129.808 44.333,129.001 42.333 C 128.798 41.829,128.522 41.117,128.387 40.750 C 128.049 39.832,125.438 34.622,124.753 33.500 C 124.144 32.504,123.755 31.829,123.392 31.143 C 123.264 30.900,123.049 30.610,122.913 30.497 C 122.778 30.385,122.666 30.208,122.666 30.105 C 122.666 30.001,122.384 29.539,122.041 29.077 C 121.698 28.616,121.160 27.866,120.845 27.411 C 120.531 26.956,120.176 26.471,120.055 26.333 C 119.935 26.196,119.143 25.221,118.296 24.167 C 116.063 21.390,111.099 16.483,108.680 14.662 C 108.250 14.339,107.791 13.984,107.658 13.873 C 106.243 12.692,102.314 9.996,101.167 9.420 C 100.846 9.258,100.471 9.032,100.333 8.917 C 99.910 8.561,96.340 6.700,94.583 5.918 C 92.776 5.114,92.086 4.823,90.750 4.304 C 87.067 2.872,80.656 1.112,77.833 0.758 C 77.421 0.706,76.033 0.515,74.750 0.333 C 71.836 -0.081,61.855 -0.124,59.167 0.264 M74.000 1.514 C 111.842 5.743,138.316 41.470,131.230 78.747 C 125.330 109.784,98.225 132.220,66.667 132.191 C 30.465 132.157,1.133 102.829,1.133 66.667 C 1.133 27.580,35.141 -2.827,74.000 1.514 M273.000 12.932 C 272.404 12.963,270.622 13.116,269.041 13.272 L 266.165 13.557 266.207 27.654 L 266.250 41.750 268.917 41.750 L 271.583 41.750 271.627 36.125 L 271.671 30.500 273.150 30.500 C 274.607 30.500,274.635 30.508,275.023 31.014 C 275.239 31.297,275.492 31.616,275.584 31.723 C 276.093 32.315,278.833 37.052,278.833 37.341 C 278.833 37.483,279.878 39.696,280.560 41.000 L 280.952 41.750 282.601 41.803 C 284.559 41.866,286.667 41.565,286.667 41.222 C 286.667 41.021,285.926 39.415,285.372 38.417 C 285.271 38.233,284.835 37.333,284.403 36.417 C 283.636 34.789,282.219 32.166,282.017 32.000 C 281.961 31.954,281.710 31.617,281.459 31.250 C 281.208 30.883,280.674 30.229,280.273 29.796 C 279.456 28.914,279.451 28.928,280.833 28.276 C 282.718 27.388,284.365 24.734,284.572 22.250 C 285.107 15.831,281.000 12.524,273.000 12.932 M296.417 13.225 C 295.096 13.570,293.488 14.240,292.936 14.675 C 289.903 17.066,288.805 20.879,290.232 24.070 C 290.700 25.115,293.073 27.667,293.578 27.667 C 293.718 27.667,293.834 27.723,293.834 27.792 C 293.834 27.860,294.228 28.113,294.709 28.353 C 295.190 28.594,296.472 29.231,297.559 29.770 C 301.469 31.709,302.731 33.847,301.268 36.051 C 300.187 37.678,295.919 37.878,292.035 36.483 C 290.570 35.957,290.599 35.934,290.110 37.958 C 289.871 38.944,289.655 40.006,289.630 40.319 L 289.583 40.888 291.083 41.336 C 295.100 42.536,301.893 42.187,303.694 40.688 C 303.816 40.586,304.314 40.197,304.800 39.824 C 305.286 39.451,305.767 38.963,305.868 38.740 C 305.970 38.516,306.106 38.333,306.170 38.333 C 306.689 38.333,307.333 35.772,307.333 33.712 C 307.333 29.723,305.894 27.963,300.413 25.244 C 296.981 23.542,296.043 22.849,295.497 21.615 C 294.895 20.254,295.707 18.389,297.162 17.790 C 297.901 17.487,302.291 17.618,304.020 17.996 C 304.866 18.180,305.578 18.311,305.603 18.286 C 305.709 18.180,306.210 13.655,306.126 13.570 C 305.421 12.865,298.709 12.626,296.417 13.225 M331.917 12.995 C 330.725 13.065,328.756 13.220,327.542 13.338 L 325.333 13.553 325.333 27.511 L 325.333 41.470 326.542 41.676 C 329.013 42.097,338.063 41.985,339.333 41.519 C 341.357 40.775,342.004 40.394,343.467 39.083 C 348.776 34.328,349.560 22.815,344.967 17.075 C 344.268 16.201,342.707 14.833,342.409 14.833 C 342.354 14.833,342.213 14.737,342.096 14.620 C 340.936 13.460,336.366 12.730,331.917 12.995 M384.083 12.995 C 382.892 13.065,380.923 13.220,379.708 13.338 L 377.500 13.553 377.500 27.507 L 377.500 41.461 377.875 41.565 C 378.656 41.782,384.865 42.032,387.583 41.956 C 392.919 41.806,396.325 39.732,398.318 35.417 C 398.614 34.775,398.926 34.100,399.010 33.917 C 400.049 31.662,400.371 25.414,399.608 22.333 C 397.854 15.251,393.201 12.452,384.083 12.995 M219.280 13.176 C 216.554 13.493,216.631 13.431,217.100 14.917 C 217.244 15.375,217.461 16.162,217.582 16.667 C 217.854 17.805,218.458 20.082,218.664 20.750 C 218.804 21.204,219.089 22.180,220.002 25.333 C 220.800 28.091,221.072 28.998,221.423 30.083 C 221.630 30.725,222.116 32.262,222.502 33.500 C 223.336 36.174,224.232 38.920,224.460 39.500 C 224.550 39.729,224.758 40.348,224.922 40.875 L 225.221 41.833 228.167 41.833 L 231.113 41.833 231.411 40.875 C 231.575 40.348,231.783 39.729,231.872 39.500 C 232.114 38.876,234.335 32.104,235.232 29.250 C 235.665 27.875,236.136 26.412,236.279 26.000 C 236.422 25.587,236.594 24.988,236.662 24.667 C 236.729 24.346,236.943 23.596,237.135 23.000 C 237.465 21.981,237.679 21.249,238.473 18.417 C 240.027 12.873,240.193 13.464,236.991 13.136 C 234.614 12.893,234.655 12.876,234.229 14.271 C 233.908 15.323,233.688 16.099,232.842 19.167 C 232.677 19.762,232.356 20.887,232.128 21.667 C 231.899 22.446,231.545 23.683,231.341 24.417 C 231.136 25.150,230.831 26.238,230.662 26.833 C 230.492 27.429,230.209 28.442,230.031 29.083 C 229.853 29.725,229.537 30.813,229.329 31.500 C 229.120 32.188,228.818 33.337,228.657 34.054 C 228.314 35.581,228.167 35.825,228.167 34.865 C 228.167 34.485,228.025 33.703,227.851 33.128 C 227.537 32.089,226.912 29.902,226.338 27.833 C 226.173 27.238,225.881 26.188,225.691 25.500 C 225.500 24.813,225.190 23.688,225.001 23.000 C 224.812 22.313,224.464 21.075,224.227 20.250 C 223.990 19.425,223.651 18.225,223.474 17.583 C 223.297 16.942,223.010 15.929,222.836 15.333 C 222.662 14.737,222.469 13.969,222.408 13.625 L 222.296 13.000 221.356 13.022 C 220.840 13.034,219.905 13.103,219.280 13.176 M179.958 13.375 L 178.500 13.540 178.500 27.687 L 178.500 41.833 180.925 41.833 L 183.350 41.833 183.300 31.330 L 183.250 20.827 183.651 21.705 C 184.650 23.890,185.082 24.728,186.166 26.583 C 186.381 26.950,186.695 27.512,186.864 27.833 C 187.176 28.425,187.292 28.625,187.934 29.667 C 188.132 29.988,188.517 30.662,188.789 31.167 C 189.061 31.671,189.456 32.383,189.667 32.750 C 189.877 33.117,190.207 33.699,190.400 34.044 C 191.037 35.184,194.209 40.740,194.538 41.292 L 194.861 41.833 196.555 41.832 C 197.487 41.831,198.644 41.783,199.125 41.725 L 200.000 41.620 200.000 27.477 L 200.000 13.333 197.577 13.333 L 195.154 13.333 195.202 23.333 C 195.228 28.833,195.237 33.333,195.220 33.333 C 195.204 33.333,195.039 32.929,194.854 32.435 C 194.490 31.460,193.940 30.315,193.314 29.227 C 193.095 28.847,192.544 27.872,192.088 27.060 C 191.632 26.248,191.144 25.388,191.004 25.149 C 190.864 24.911,190.225 23.798,189.583 22.677 C 188.942 21.557,188.342 20.513,188.250 20.358 C 188.158 20.203,187.535 19.103,186.864 17.913 C 186.194 16.724,185.489 15.487,185.299 15.167 C 185.108 14.846,184.793 14.283,184.599 13.917 L 184.246 13.250 182.831 13.230 C 182.053 13.219,180.760 13.284,179.958 13.375 M150.170 22.292 C 150.175 34.423,150.562 37.201,152.500 39.032 C 152.665 39.188,152.826 39.375,152.858 39.449 C 153.327 40.526,156.131 41.712,158.894 42.002 C 164.942 42.639,168.746 40.790,170.560 36.333 C 171.417 34.229,171.500 33.016,171.500 22.640 L 171.500 13.333 168.917 13.333 L 166.333 13.333 166.329 22.125 C 166.322 34.705,166.228 35.240,163.783 36.541 C 162.596 37.172,158.714 37.098,157.637 36.422 C 155.758 35.245,155.673 34.658,155.670 22.875 L 155.667 13.333 152.917 13.333 L 150.167 13.333 150.170 22.292 M207.167 27.583 L 207.167 41.833 209.833 41.833 L 212.500 41.833 212.500 27.583 L 212.500 13.333 209.833 13.333 L 207.167 13.333 207.167 27.583 M243.874 27.542 L 243.917 41.750 252.250 41.750 L 260.583 41.750 260.774 40.667 C 260.878 40.071,260.972 38.965,260.982 38.208 L 261.000 36.833 255.167 36.833 L 249.333 36.833 249.333 33.167 L 249.333 29.500 253.250 29.500 L 257.167 29.500 257.167 27.083 L 257.167 24.667 253.250 24.667 L 249.333 24.667 249.333 21.417 L 249.333 18.167 254.645 18.167 L 259.956 18.167 260.060 17.542 C 260.117 17.198,260.164 16.110,260.165 15.125 L 260.167 13.333 251.999 13.333 L 243.831 13.333 243.874 27.542 M313.000 27.583 L 313.000 41.833 315.667 41.833 L 318.333 41.833 318.333 27.583 L 318.333 13.333 315.667 13.333 L 313.000 13.333 313.000 27.583 M358.862 13.754 C 358.754 13.990,358.667 14.277,358.667 14.393 C 358.667 14.509,358.517 14.915,358.333 15.294 C 358.150 15.673,358.000 16.079,358.000 16.196 C 358.000 16.313,357.822 16.898,357.604 17.496 C 356.988 19.188,356.643 20.206,356.500 20.750 C 356.428 21.025,356.237 21.625,356.076 22.083 C 355.319 24.241,354.499 26.805,353.332 30.667 C 353.124 31.354,352.820 32.329,352.657 32.833 C 352.493 33.337,352.158 34.462,351.912 35.333 C 351.665 36.204,351.329 37.367,351.164 37.917 C 350.455 40.282,350.167 41.280,350.167 41.375 C 350.167 41.608,352.062 41.843,353.585 41.798 L 355.223 41.750 355.536 40.750 C 355.708 40.200,356.006 39.225,356.197 38.583 C 356.389 37.942,356.685 36.996,356.856 36.483 C 357.027 35.969,357.167 35.429,357.167 35.282 C 357.167 35.136,357.254 34.825,357.360 34.591 L 357.554 34.167 361.838 34.167 L 366.123 34.167 366.331 34.958 C 366.445 35.394,366.675 36.200,366.843 36.750 C 367.010 37.300,367.330 38.350,367.554 39.083 C 367.778 39.817,368.047 40.735,368.154 41.125 L 368.347 41.833 370.165 41.833 C 373.775 41.833,373.993 41.667,373.271 39.460 C 373.053 38.794,372.707 37.650,372.502 36.917 C 372.296 36.183,371.998 35.171,371.838 34.667 C 371.678 34.162,371.379 33.188,371.172 32.500 C 370.966 31.813,370.609 30.650,370.379 29.917 C 370.148 29.183,369.817 28.115,369.641 27.544 C 368.563 24.030,367.839 21.737,367.575 21.000 C 367.460 20.679,367.014 19.292,366.582 17.917 C 366.151 16.542,365.627 14.967,365.417 14.417 L 365.035 13.417 362.046 13.371 L 359.057 13.326 358.862 13.754 M276.384 17.655 C 278.402 18.124,279.384 20.095,278.962 22.831 C 278.583 25.283,277.222 26.200,273.798 26.306 L 271.667 26.373 271.667 22.032 C 271.667 18.038,271.690 17.685,271.958 17.615 C 272.490 17.476,275.739 17.505,276.384 17.655 M337.560 18.258 C 340.383 19.168,342.001 22.545,341.990 27.500 C 341.972 35.219,339.207 37.828,331.858 37.060 L 330.833 36.953 330.833 27.476 C 330.833 18.570,330.851 17.999,331.125 17.979 C 334.944 17.701,335.973 17.746,337.560 18.258 M389.561 18.208 C 393.255 19.394,395.130 25.027,393.875 31.167 C 392.871 36.078,390.159 37.701,384.024 37.060 L 383.000 36.953 383.000 27.486 L 383.000 18.020 383.625 17.955 C 385.784 17.729,388.418 17.841,389.561 18.208 M362.642 22.667 C 362.812 23.171,363.109 24.108,363.302 24.750 C 363.494 25.392,363.767 26.292,363.908 26.750 C 364.173 27.613,364.667 29.459,364.667 29.591 C 364.667 29.633,363.354 29.667,361.750 29.667 C 360.146 29.667,358.833 29.613,358.833 29.547 C 358.833 29.482,358.935 29.125,359.060 28.756 C 359.185 28.386,359.444 27.558,359.636 26.917 C 359.984 25.751,360.513 24.043,361.156 22.000 C 361.344 21.404,361.548 20.433,361.609 19.842 L 361.721 18.768 362.026 20.259 C 362.194 21.079,362.471 22.162,362.642 22.667 M226.419 48.375 C 225.577 49.888,225.398 50.192,224.940 50.884 C 224.482 51.577,225.276 51.803,228.254 51.825 L 229.426 51.833 230.509 50.708 C 231.928 49.236,232.833 47.848,232.833 47.146 C 232.833 47.066,231.562 47.000,230.009 47.000 L 227.184 47.000 226.419 48.375 M157.350 52.908 C 151.066 54.727,148.067 60.575,148.841 69.500 C 149.387 75.792,151.844 79.550,156.417 81.085 C 159.740 82.200,165.218 81.851,168.439 80.317 L 169.127 79.989 169.049 78.870 C 168.985 77.961,168.414 75.242,168.242 75.030 C 168.218 75.001,167.873 75.137,167.474 75.333 C 163.323 77.375,159.160 77.382,156.939 75.353 C 153.736 72.425,153.786 62.032,157.018 58.862 C 158.845 57.072,164.547 56.942,167.134 58.632 C 167.743 59.031,168.148 57.901,168.419 55.040 L 168.534 53.831 167.892 53.560 C 165.476 52.544,159.819 52.194,157.350 52.908 M224.750 52.758 C 224.292 52.898,223.692 53.072,223.417 53.146 C 222.915 53.281,221.850 53.818,220.917 54.407 C 220.262 54.820,218.415 56.716,218.103 57.296 C 216.670 59.953,216.198 61.480,215.877 64.500 C 215.411 68.874,215.998 73.334,217.407 76.121 C 218.317 77.922,219.872 79.574,221.417 80.381 C 226.917 83.252,234.703 81.630,237.456 77.039 C 240.007 72.786,240.525 63.076,238.419 59.000 C 238.301 58.771,238.117 58.396,238.011 58.167 C 237.544 57.163,237.243 56.754,236.196 55.700 C 234.599 54.094,233.912 53.667,231.833 52.987 C 230.373 52.509,226.024 52.369,224.750 52.758 M285.583 52.899 C 278.748 54.918,275.544 62.128,277.244 71.667 C 278.688 79.766,285.507 83.548,294.333 81.145 C 297.661 80.239,297.631 80.300,296.767 76.275 C 296.462 74.851,296.516 74.891,295.554 75.371 C 290.884 77.704,286.338 77.317,284.338 74.417 C 283.171 72.723,282.929 71.484,282.923 67.167 L 282.917 63.250 283.484 61.694 C 284.180 59.785,285.179 58.585,286.635 57.908 C 288.460 57.059,293.491 57.468,295.306 58.614 C 295.817 58.936,295.813 58.942,296.271 57.048 C 296.827 54.751,296.807 53.915,296.190 53.595 C 294.265 52.600,287.990 52.188,285.583 52.899 M341.250 52.605 C 339.513 52.698,334.613 53.180,334.463 53.273 C 334.392 53.317,334.333 59.575,334.333 67.181 L 334.333 81.008 334.792 81.184 C 336.571 81.865,346.611 81.761,348.583 81.040 C 354.805 78.768,357.944 71.842,356.685 63.167 C 356.174 59.643,353.961 55.860,351.667 54.586 C 348.679 52.927,345.724 52.365,341.250 52.605 M179.449 53.455 C 179.053 54.370,178.494 55.983,178.310 56.743 C 178.221 57.106,178.090 57.481,178.017 57.577 C 177.944 57.672,177.491 58.987,177.010 60.500 C 176.529 62.012,176.000 63.625,175.836 64.083 C 175.672 64.542,175.330 65.592,175.077 66.417 C 174.824 67.242,174.488 68.329,174.330 68.833 C 174.172 69.337,173.873 70.313,173.665 71.000 C 173.458 71.688,173.154 72.662,172.991 73.167 C 172.673 74.151,172.043 76.315,171.487 78.333 C 171.297 79.021,171.072 79.814,170.988 80.095 C 170.636 81.262,171.174 81.500,174.168 81.500 L 175.820 81.500 176.013 80.792 C 176.119 80.402,176.350 79.596,176.526 79.000 C 176.702 78.404,177.000 77.392,177.188 76.750 C 177.376 76.108,177.651 75.190,177.799 74.708 L 178.069 73.833 182.365 73.833 L 186.660 73.833 186.759 74.292 C 186.814 74.544,186.995 75.162,187.162 75.667 C 187.328 76.171,187.668 77.296,187.916 78.167 C 188.165 79.037,188.501 80.125,188.665 80.583 L 188.962 81.417 190.523 81.471 C 191.859 81.518,194.333 81.262,194.333 81.076 C 194.333 80.931,193.816 79.050,193.518 78.112 C 193.338 77.546,193.026 76.521,192.825 75.833 C 192.269 73.932,191.924 72.807,191.091 70.167 C 190.671 68.837,190.329 67.666,190.331 67.564 C 190.332 67.462,190.194 67.012,190.024 66.564 C 189.854 66.116,189.546 65.188,189.339 64.500 C 188.835 62.824,188.165 60.716,187.909 60.000 C 187.794 59.679,187.224 57.954,186.642 56.167 L 185.583 52.917 182.652 52.871 L 179.721 52.826 179.449 53.455 M194.000 55.333 L 194.000 57.833 197.333 57.833 L 200.667 57.833 200.667 69.583 L 200.667 81.333 203.417 81.333 L 206.167 81.333 206.167 69.583 L 206.167 57.833 209.405 57.833 C 212.346 57.833,212.652 57.806,212.730 57.542 C 212.898 56.973,213.167 54.630,213.167 53.738 L 213.167 52.833 203.583 52.833 L 194.000 52.833 194.000 55.333 M245.333 67.085 L 245.333 81.337 253.206 81.293 L 261.078 81.250 261.195 80.583 C 261.259 80.217,261.365 79.148,261.430 78.208 L 261.549 76.500 256.191 76.500 L 250.833 76.500 250.833 64.667 L 250.833 52.833 248.083 52.833 L 245.333 52.833 245.333 67.085 M266.000 67.083 L 266.000 81.333 268.750 81.333 L 271.500 81.333 271.500 67.083 L 271.500 52.833 268.750 52.833 L 266.000 52.833 266.000 67.083 M307.576 53.407 C 307.443 53.727,307.333 54.093,307.333 54.219 C 307.333 54.345,307.211 54.694,307.061 54.994 C 306.912 55.294,306.731 55.774,306.659 56.061 C 306.587 56.348,306.250 57.371,305.909 58.333 C 305.568 59.296,305.232 60.308,305.162 60.583 C 305.092 60.858,304.904 61.458,304.743 61.917 C 303.849 64.465,303.492 65.568,302.423 69.083 C 302.005 70.458,301.486 72.146,301.268 72.833 C 300.891 74.028,300.516 75.296,299.839 77.667 C 299.075 80.343,298.953 80.761,298.887 80.934 C 298.779 81.215,300.516 81.500,302.338 81.500 L 303.954 81.500 304.239 80.542 C 304.396 80.015,304.678 79.058,304.866 78.417 C 305.054 77.775,305.343 76.800,305.508 76.250 C 305.673 75.700,305.901 74.931,306.014 74.542 L 306.220 73.833 310.520 73.833 L 314.820 73.833 315.011 74.542 C 315.117 74.931,315.342 75.700,315.512 76.250 C 316.193 78.450,316.646 79.955,316.854 80.708 L 317.073 81.500 318.731 81.500 C 319.643 81.500,320.864 81.417,321.444 81.316 C 322.712 81.095,322.747 81.703,321.160 76.417 C 320.995 75.867,320.706 74.892,320.519 74.250 C 320.186 73.109,318.964 69.112,318.315 67.044 C 318.136 66.472,317.843 65.534,317.666 64.960 C 317.488 64.386,317.016 62.904,316.616 61.667 C 316.216 60.429,315.530 58.292,315.092 56.917 C 314.654 55.542,314.167 54.079,314.011 53.667 L 313.725 52.917 310.773 52.871 L 307.820 52.826 307.576 53.407 M362.333 67.083 L 362.333 81.333 370.740 81.333 C 375.364 81.333,379.184 81.273,379.229 81.200 C 379.275 81.127,379.365 80.039,379.430 78.783 L 379.548 76.500 373.691 76.500 L 367.833 76.500 367.833 72.836 L 367.833 69.173 371.792 69.128 L 375.750 69.083 375.796 66.708 L 375.842 64.333 371.838 64.333 L 367.833 64.333 367.833 61.083 L 367.833 57.833 373.157 57.833 C 376.085 57.833,378.515 57.777,378.557 57.708 C 378.598 57.640,378.688 56.515,378.754 55.208 L 378.876 52.833 370.605 52.833 L 362.333 52.833 362.333 67.083 M230.703 57.911 C 233.016 59.221,233.912 62.100,233.786 67.823 C 233.634 74.733,232.162 76.970,227.750 76.991 C 223.245 77.012,221.579 74.197,221.707 66.780 C 221.799 61.416,222.497 59.277,224.569 58.006 C 225.931 57.171,229.305 57.118,230.703 57.911 M346.020 57.737 C 349.590 58.821,350.923 61.419,350.899 67.250 C 350.867 74.953,348.493 77.344,341.455 76.758 L 340.000 76.637 340.000 67.163 L 340.000 57.690 340.375 57.618 C 341.338 57.432,345.290 57.516,346.020 57.737 M182.954 61.500 C 183.149 62.096,183.474 63.146,183.675 63.833 C 183.876 64.521,184.176 65.533,184.342 66.083 C 184.508 66.633,184.754 67.458,184.890 67.917 C 185.025 68.375,185.189 68.881,185.253 69.042 C 185.361 69.313,185.160 69.333,182.372 69.333 L 179.376 69.333 179.701 68.208 C 179.879 67.590,180.129 66.723,180.255 66.283 C 180.382 65.843,180.635 65.018,180.817 64.450 C 181.560 62.130,181.830 61.187,182.116 59.917 L 182.417 58.583 182.508 59.500 C 182.558 60.004,182.758 60.904,182.954 61.500 M310.737 59.854 C 310.800 60.328,311.025 61.249,311.237 61.900 C 311.450 62.551,311.777 63.608,311.965 64.250 C 312.616 66.478,313.044 67.921,313.261 68.625 L 313.480 69.333 310.476 69.333 C 308.138 69.333,307.491 69.287,307.559 69.125 C 307.606 69.010,307.734 68.617,307.842 68.250 C 309.032 64.230,309.505 62.687,309.860 61.679 C 310.035 61.181,310.223 60.340,310.279 59.808 C 310.400 58.654,310.580 58.672,310.737 59.854 M265.333 92.273 C 259.050 93.462,255.663 98.521,255.668 106.707 C 255.673 114.763,258.090 119.005,263.737 120.865 L 265.244 121.362 268.580 121.293 C 272.161 121.219,273.075 121.047,275.125 120.062 L 276.000 119.641 276.000 118.842 C 276.000 118.146,275.296 114.908,275.103 114.714 C 275.065 114.676,274.662 114.832,274.208 115.062 C 269.790 117.301,264.992 116.915,263.079 114.167 C 260.628 110.646,261.060 101.545,263.818 98.613 C 265.603 96.715,270.679 96.533,273.995 98.247 C 274.290 98.400,274.553 98.500,274.579 98.471 C 274.713 98.320,275.155 95.925,275.255 94.805 L 275.370 93.527 274.893 93.285 C 273.389 92.520,267.386 91.884,265.333 92.273 M288.417 92.408 C 285.779 93.136,284.709 93.739,283.083 95.411 C 282.350 96.165,281.573 97.150,281.357 97.599 C 281.141 98.049,280.853 98.628,280.716 98.887 C 278.897 102.324,278.929 111.226,280.775 115.257 C 282.799 119.678,285.944 121.422,291.666 121.295 C 295.573 121.208,297.288 120.610,299.434 118.583 C 304.623 113.682,304.810 100.613,299.768 95.203 C 297.524 92.795,291.968 91.427,288.417 92.408 M147.333 94.917 L 147.333 97.333 150.667 97.333 L 154.000 97.333 154.000 109.167 L 154.000 121.000 156.833 121.000 L 159.667 121.000 159.667 109.167 L 159.667 97.333 162.891 97.333 L 166.116 97.333 166.308 95.958 C 166.414 95.202,166.500 94.115,166.500 93.542 L 166.500 92.500 156.917 92.500 L 147.333 92.500 147.333 94.917 M170.667 106.750 L 170.667 121.000 179.048 121.000 L 187.429 121.000 187.631 118.875 C 187.742 117.706,187.834 116.619,187.833 116.458 C 187.833 116.186,187.444 116.167,182.000 116.167 L 176.167 116.167 176.167 112.417 L 176.167 108.667 180.083 108.667 L 184.000 108.667 184.000 106.333 L 184.000 104.000 180.083 104.000 L 176.167 104.000 176.167 100.667 L 176.167 97.333 181.479 97.333 L 186.790 97.333 186.900 95.792 C 186.960 94.944,187.053 93.856,187.107 93.375 L 187.205 92.500 178.936 92.500 L 170.667 92.500 170.667 106.750 M194.773 93.375 C 194.651 94.635,194.066 100.132,193.579 104.583 C 193.348 106.692,193.161 108.735,193.163 109.125 C 193.165 109.515,193.022 111.315,192.845 113.125 C 192.352 118.181,192.270 120.773,192.599 120.900 C 193.060 121.076,196.721 121.346,196.841 121.212 C 196.905 121.141,197.083 119.621,197.237 117.833 C 197.392 116.046,197.662 112.971,197.837 111.000 C 198.013 109.029,198.239 106.367,198.340 105.083 C 198.441 103.800,198.578 102.150,198.646 101.417 L 198.768 100.083 198.904 101.333 C 198.978 102.021,199.136 102.846,199.254 103.167 C 199.371 103.487,199.667 104.425,199.910 105.250 C 200.153 106.075,200.682 107.800,201.085 109.083 C 201.488 110.367,202.276 112.879,202.837 114.667 C 203.398 116.454,203.915 118.179,203.987 118.500 C 204.058 118.821,204.240 119.374,204.392 119.729 C 204.543 120.084,204.667 120.515,204.667 120.687 C 204.667 120.980,204.835 121.000,207.313 121.000 L 209.960 121.000 210.121 120.542 C 210.210 120.290,210.450 119.521,210.654 118.833 C 210.859 118.146,211.197 117.021,211.406 116.333 C 211.614 115.646,211.952 114.521,212.155 113.833 C 212.522 112.590,212.868 111.443,213.472 109.456 C 213.646 108.885,213.992 107.742,214.240 106.917 C 214.489 106.092,214.800 105.079,214.931 104.667 C 215.062 104.254,215.350 103.204,215.572 102.333 C 215.973 100.754,215.974 100.752,216.011 101.583 C 216.031 102.042,216.068 102.679,216.092 103.000 C 216.116 103.321,216.294 105.646,216.487 108.167 C 216.680 110.688,216.953 114.325,217.094 116.250 C 217.234 118.175,217.393 120.105,217.446 120.538 L 217.542 121.327 219.063 121.231 C 220.520 121.139,222.494 120.897,222.590 120.797 C 222.694 120.690,222.346 114.995,222.018 111.417 C 221.132 101.776,220.967 100.069,220.658 97.333 C 220.477 95.729,220.330 94.104,220.331 93.722 C 220.335 92.444,220.486 92.500,217.077 92.500 L 214.024 92.500 213.684 93.410 C 213.496 93.910,213.295 94.529,213.237 94.785 C 213.179 95.041,212.998 95.662,212.835 96.167 C 211.999 98.756,211.833 99.314,211.833 99.541 C 211.833 99.677,211.689 100.155,211.513 100.603 C 211.337 101.050,210.989 102.129,210.740 103.000 C 210.491 103.871,210.158 104.996,209.999 105.500 C 209.840 106.004,209.552 106.942,209.358 107.583 C 209.165 108.225,208.825 109.350,208.602 110.083 C 208.099 111.743,207.895 112.639,207.729 113.917 L 207.600 114.917 207.477 113.883 C 207.355 112.845,207.116 111.918,206.412 109.750 C 206.204 109.108,205.865 108.021,205.659 107.333 C 205.454 106.646,205.155 105.671,204.996 105.167 C 204.836 104.662,204.501 103.575,204.251 102.750 C 204.001 101.925,203.666 100.875,203.507 100.417 C 203.348 99.958,203.048 99.021,202.840 98.333 C 202.130 95.979,201.794 94.916,201.380 93.708 L 200.966 92.500 197.912 92.500 L 194.857 92.500 194.773 93.375 M228.843 102.125 C 228.857 111.610,228.916 112.853,229.437 114.667 C 229.735 115.705,230.456 117.448,230.732 117.800 C 231.383 118.629,232.581 119.833,232.754 119.833 C 232.867 119.833,233.047 119.939,233.155 120.069 C 233.262 120.198,234.059 120.536,234.925 120.819 C 238.027 121.832,243.481 121.476,245.543 120.125 C 245.788 119.965,246.050 119.833,246.126 119.833 C 246.340 119.833,248.394 117.624,248.608 117.163 C 250.212 113.702,250.360 112.302,250.298 101.167 L 250.250 92.583 247.625 92.537 L 245.000 92.492 244.997 101.954 C 244.994 113.134,244.938 113.638,243.548 115.091 C 241.718 117.004,236.676 116.797,235.309 114.754 C 234.445 113.462,234.455 113.590,234.377 102.708 L 234.303 92.500 231.566 92.500 L 228.828 92.500 228.843 102.125 M292.486 97.010 C 295.610 97.515,296.978 99.627,297.354 104.526 C 297.989 112.788,296.113 116.655,291.467 116.665 C 286.941 116.674,285.250 114.000,285.250 106.833 C 285.250 100.391,286.536 97.698,289.917 97.062 C 291.265 96.809,291.239 96.809,292.486 97.010 " stroke="none" fill="#848484" fill-rule="evenodd"></path><path id="path4" d="M66.047 1.123 C 66.485 1.157,67.160 1.157,67.547 1.122 C 67.934 1.087,67.575 1.059,66.750 1.059 C 65.925 1.060,65.609 1.088,66.047 1.123 M62.042 1.282 C 62.202 1.323,62.465 1.323,62.625 1.282 C 62.785 1.240,62.654 1.205,62.333 1.205 C 62.012 1.205,61.881 1.240,62.042 1.282 M70.875 1.282 C 71.035 1.323,71.298 1.323,71.458 1.282 C 71.619 1.240,71.487 1.205,71.167 1.205 C 70.846 1.205,70.715 1.240,70.875 1.282 M65.455 11.787 C 65.750 11.824,66.275 11.824,66.621 11.788 C 66.967 11.752,66.725 11.722,66.083 11.721 C 65.442 11.721,65.159 11.750,65.455 11.787 M62.875 11.948 C 63.035 11.990,63.298 11.990,63.458 11.948 C 63.619 11.906,63.487 11.872,63.167 11.872 C 62.846 11.872,62.715 11.906,62.875 11.948 M58.269 12.470 C 58.222 12.545,58.405 12.574,58.675 12.534 C 58.946 12.495,59.167 12.433,59.167 12.398 C 59.167 12.271,58.351 12.336,58.269 12.470 M60.750 18.333 C 61.108 18.700,61.438 19.000,61.484 19.000 C 61.530 19.000,61.275 18.700,60.917 18.333 C 60.559 17.967,60.228 17.667,60.182 17.667 C 60.137 17.667,60.392 17.967,60.750 18.333 M41.292 18.095 C 40.669 18.433,40.707 18.574,41.333 18.250 C 41.608 18.108,41.833 17.956,41.833 17.912 C 41.833 17.805,41.815 17.811,41.292 18.095 M20.073 20.542 L 19.583 21.083 20.125 20.594 C 20.423 20.325,20.667 20.081,20.667 20.052 C 20.667 19.923,20.529 20.037,20.073 20.542 M65.960 20.951 C 66.168 20.991,66.468 20.990,66.627 20.948 C 66.786 20.906,66.617 20.874,66.250 20.875 C 65.883 20.877,65.753 20.911,65.960 20.951 M53.333 25.750 C 53.924 26.346,54.445 26.833,54.490 26.833 C 54.536 26.833,54.091 26.346,53.500 25.750 C 52.909 25.154,52.389 24.667,52.343 24.667 C 52.297 24.667,52.743 25.154,53.333 25.750 M29.658 26.458 L 29.083 27.083 29.708 26.509 C 30.290 25.974,30.410 25.833,30.283 25.833 C 30.255 25.833,29.974 26.115,29.658 26.458 M44.485 28.472 C 44.575 28.640,44.779 28.884,44.939 29.014 C 45.119 29.160,45.079 29.044,44.834 28.708 C 44.396 28.110,44.232 27.999,44.485 28.472 M26.991 29.125 L 26.417 29.750 27.042 29.176 C 27.623 28.641,27.743 28.500,27.616 28.500 C 27.588 28.500,27.307 28.781,26.991 29.125 M46.167 30.546 C 46.167 30.571,46.748 31.152,47.458 31.838 L 48.750 33.083 47.504 31.792 C 46.347 30.592,46.167 30.424,46.167 30.546 M61.917 30.833 C 62.100 30.912,62.400 30.974,62.583 30.972 C 62.851 30.968,62.835 30.941,62.500 30.833 C 61.930 30.651,61.492 30.651,61.917 30.833 M65.042 31.448 C 65.202 31.490,65.465 31.490,65.625 31.448 C 65.785 31.406,65.654 31.372,65.333 31.372 C 65.012 31.372,64.881 31.406,65.042 31.448 M49.893 33.962 C 50.025 34.175,51.000 34.897,51.000 34.781 C 51.000 34.740,50.725 34.496,50.388 34.240 C 50.052 33.983,49.829 33.858,49.893 33.962 M36.000 34.667 C 36.196 34.942,36.394 35.167,36.439 35.167 C 36.485 35.167,36.362 34.942,36.167 34.667 C 35.971 34.392,35.773 34.167,35.727 34.167 C 35.681 34.167,35.804 34.392,36.000 34.667 M38.917 38.167 C 39.368 38.625,39.775 39.000,39.821 39.000 C 39.867 39.000,39.535 38.625,39.083 38.167 C 38.632 37.708,38.225 37.333,38.179 37.333 C 38.133 37.333,38.465 37.708,38.917 38.167 M40.667 39.885 C 40.667 39.914,40.910 40.158,41.208 40.427 L 41.750 40.917 41.260 40.375 C 40.804 39.870,40.667 39.757,40.667 39.885 M65.042 39.948 C 65.202 39.990,65.465 39.990,65.625 39.948 C 65.785 39.906,65.654 39.872,65.333 39.872 C 65.012 39.872,64.881 39.906,65.042 39.948 M17.357 42.458 C 17.171 42.893,17.175 42.900,17.426 42.583 C 17.571 42.400,17.765 42.271,17.857 42.296 C 17.949 42.321,17.977 42.265,17.919 42.171 C 17.743 41.885,17.563 41.977,17.357 42.458 M31.500 42.719 C 31.500 42.748,31.744 42.991,32.042 43.260 L 32.583 43.750 32.094 43.208 C 31.638 42.703,31.500 42.590,31.500 42.719 M33.750 45.167 C 34.201 45.625,34.608 46.000,34.654 46.000 C 34.700 46.000,34.368 45.625,33.917 45.167 C 33.465 44.708,33.058 44.333,33.013 44.333 C 32.967 44.333,33.299 44.708,33.750 45.167 M20.330 45.995 C 20.524 46.267,20.767 46.543,20.871 46.607 C 20.975 46.671,20.850 46.448,20.594 46.112 C 20.037 45.381,19.827 45.288,20.330 45.995 M23.917 50.333 C 24.275 50.700,24.605 51.000,24.651 51.000 C 24.697 51.000,24.441 50.700,24.083 50.333 C 23.725 49.967,23.395 49.667,23.349 49.667 C 23.303 49.667,23.559 49.967,23.917 50.333 M64.542 50.448 C 64.702 50.490,64.965 50.490,65.125 50.448 C 65.285 50.406,65.154 50.372,64.833 50.372 C 64.512 50.372,64.381 50.406,64.542 50.448 M25.833 52.417 C 26.144 52.737,26.436 53.000,26.482 53.000 C 26.528 53.000,26.311 52.737,26.000 52.417 C 25.689 52.096,25.397 51.833,25.351 51.833 C 25.305 51.833,25.522 52.096,25.833 52.417 M67.234 55.417 C 67.234 56.883,67.260 57.461,67.291 56.700 C 67.322 55.940,67.322 54.740,67.290 54.034 C 67.259 53.328,67.234 53.950,67.234 55.417 M27.993 54.375 C 28.402 54.810,28.758 55.167,28.785 55.167 C 28.910 55.167,28.778 55.017,28.042 54.326 L 27.250 53.583 27.993 54.375 M1.205 62.333 C 1.205 62.654,1.240 62.785,1.282 62.625 C 1.323 62.465,1.323 62.202,1.282 62.042 C 1.240 61.881,1.205 62.012,1.205 62.333 M132.217 63.167 C 132.217 63.671,132.248 63.877,132.286 63.625 C 132.324 63.373,132.324 62.960,132.286 62.708 C 132.248 62.456,132.217 62.663,132.217 63.167 M11.885 63.417 C 11.886 63.967,11.917 64.172,11.954 63.872 C 11.991 63.572,11.990 63.122,11.952 62.872 C 11.914 62.622,11.884 62.867,11.885 63.417 M1.053 66.667 C 1.053 67.262,1.084 67.506,1.121 67.208 C 1.158 66.910,1.158 66.423,1.121 66.125 C 1.084 65.827,1.053 66.071,1.053 66.667 M11.883 69.833 C 11.883 70.337,11.915 70.544,11.953 70.292 C 11.991 70.040,11.991 69.627,11.953 69.375 C 11.915 69.123,11.883 69.329,11.883 69.833 M60.294 69.118 C 60.501 69.158,60.801 69.156,60.960 69.115 C 61.120 69.073,60.950 69.040,60.583 69.042 C 60.217 69.044,60.086 69.078,60.294 69.118 M61.958 69.284 C 62.165 69.324,62.502 69.324,62.708 69.284 C 62.915 69.245,62.746 69.212,62.333 69.212 C 61.921 69.212,61.752 69.245,61.958 69.284 M65.127 69.451 C 65.334 69.491,65.634 69.490,65.794 69.448 C 65.953 69.406,65.783 69.374,65.417 69.375 C 65.050 69.377,64.920 69.411,65.127 69.451 M132.217 70.167 C 132.217 70.671,132.248 70.877,132.286 70.625 C 132.324 70.373,132.324 69.960,132.286 69.708 C 132.248 69.456,132.217 69.662,132.217 70.167 M1.205 71.000 C 1.205 71.321,1.240 71.452,1.282 71.292 C 1.323 71.131,1.323 70.869,1.282 70.708 C 1.240 70.548,1.205 70.679,1.205 71.000 M18.083 92.167 C 18.226 92.442,18.379 92.667,18.425 92.667 C 18.471 92.667,18.392 92.442,18.250 92.167 C 18.108 91.892,17.954 91.667,17.908 91.667 C 17.862 91.667,17.941 91.892,18.083 92.167 M24.500 101.719 C 24.500 101.748,24.744 101.991,25.042 102.260 L 25.583 102.750 25.094 102.208 C 24.638 101.703,24.500 101.590,24.500 101.719 M26.667 104.083 C 27.165 104.587,27.609 105.000,27.655 105.000 C 27.701 105.000,27.331 104.587,26.833 104.083 C 26.335 103.579,25.891 103.167,25.845 103.167 C 25.799 103.167,26.169 103.579,26.667 104.083 M29.160 106.542 C 29.850 107.278,30.000 107.410,30.000 107.285 C 30.000 107.258,29.644 106.902,29.208 106.493 L 28.417 105.750 29.160 106.542 M17.500 110.052 C 17.500 110.081,17.744 110.325,18.042 110.594 L 18.583 111.083 18.094 110.542 C 17.638 110.037,17.500 109.923,17.500 110.052 M114.500 111.417 C 114.095 111.829,113.801 112.167,113.847 112.167 C 113.893 112.167,114.262 111.829,114.667 111.417 C 115.072 111.004,115.365 110.667,115.319 110.667 C 115.274 110.667,114.905 111.004,114.500 111.417 M111.573 114.375 L 111.083 114.917 111.625 114.427 C 111.923 114.158,112.167 113.914,112.167 113.885 C 112.167 113.757,112.029 113.870,111.573 114.375 M40.833 114.908 C 40.833 114.954,41.058 115.108,41.333 115.250 C 41.608 115.392,41.833 115.471,41.833 115.425 C 41.833 115.379,41.608 115.226,41.333 115.083 C 41.058 114.941,40.833 114.862,40.833 114.908 M59.875 121.115 C 60.035 121.157,60.298 121.157,60.458 121.115 C 60.619 121.073,60.487 121.039,60.167 121.039 C 59.846 121.039,59.715 121.073,59.875 121.115 M63.460 121.451 C 63.668 121.491,63.968 121.490,64.127 121.448 C 64.286 121.406,64.117 121.374,63.750 121.375 C 63.383 121.377,63.253 121.411,63.460 121.451 M66.295 132.287 C 66.594 132.325,67.044 132.324,67.295 132.286 C 67.545 132.248,67.300 132.217,66.750 132.218 C 66.200 132.219,65.995 132.250,66.295 132.287 " stroke="none" fill="#8bb9df" fill-rule="evenodd"></path></g></svg>